<svg xmlns="http://www.w3.org/2000/svg" width="24" height="26.074" viewBox="0 0 24 26.074">
  <g id="noun-call-2442970" transform="translate(0.001)">
    <path id="Path_4411" data-name="Path 4411" d="M89.64,25.925l-1.058-.016-.3-.063c-.24-.049-.494-.1-.737-.164a14.053,14.053,0,0,1-4.368-2.177,36.85,36.85,0,0,1-6.051-5.474h0a39.207,39.207,0,0,1-4.61-5.943,17.162,17.162,0,0,1-2.237-4.995c-.082-.323-.137-.644-.19-.954-.024-.133-.046-.261-.07-.4L70,5.58V4.652l.058-.151A7.377,7.377,0,0,1,71.9,1.9c.514-.521,1.056-1,1.565-1.436a2.337,2.337,0,0,1,2.213-.521,1.976,1.976,0,0,1,1.2.925l.658,1.077c.686,1.136,1.394,2.31,2.114,3.444a2.9,2.9,0,0,1,.474,1.4,2.954,2.954,0,0,1-.27,1.465c-.127.3-.274.587-.415.86l-.18.352c-.134.261-.266.521-.406.782l.451.587c.406.521.828,1.082,1.26,1.588h0a33.608,33.608,0,0,0,3.857,3.91c.509-.321,1.042-.644,1.625-.988h0A2.525,2.525,0,0,1,88,14.977a1.98,1.98,0,0,1,.667.307q2.23,1.593,4.447,3.2a2.537,2.537,0,0,1,.758,2.781,2.648,2.648,0,0,1-.326.722,15.145,15.145,0,0,1-2.729,3.157,4.956,4.956,0,0,1-.72.49c-.091.055-.18.107-.269.162ZM88.8,24.254h.427l.13-.076a3.687,3.687,0,0,0,.509-.339A13.627,13.627,0,0,0,92.3,21a1.023,1.023,0,0,0,.106-.261.859.859,0,0,0,.047-.458.821.821,0,0,0-.2-.41q-2.215-1.6-4.437-3.191a.517.517,0,0,0-.166-.076,1.144,1.144,0,0,0-.876.2c-.646.378-1.224.732-1.769,1.082a1.055,1.055,0,0,1-.677.2,1.075,1.075,0,0,1-.652-.279,34.555,34.555,0,0,1-4.234-4.249c-.463-.54-.9-1.108-1.318-1.658-.223-.284-.449-.566-.66-.847a1.168,1.168,0,0,1-.265-.669,1.191,1.191,0,0,1,.171-.7c.19-.339.365-.683.54-1.024l.187-.362c.132-.261.254-.49.353-.727h0a1.174,1.174,0,0,0,.137-.623,1.155,1.155,0,0,0-.206-.6c-.72-1.15-1.44-2.333-2.134-3.475L75.61,1.792a.439.439,0,0,0-.29-.219.9.9,0,0,0-.888.193c-.48.425-1.006.881-1.483,1.361a6.143,6.143,0,0,0-1.411,1.861v.506c.022.112.041.224.06.336.05.292.1.566.163.826a15.591,15.591,0,0,0,2.028,4.5h0a37.606,37.606,0,0,0,4.423,5.7A35.433,35.433,0,0,0,84,22.1a12.587,12.587,0,0,0,3.907,1.963c.211.057.427.1.643.141Z" transform="translate(-69.999 0.149)" fill="#71b7bf"/>
  </g>
</svg>
