<svg xmlns="http://www.w3.org/2000/svg" width="19.414" height="24" viewBox="0 0 19.414 24">
  <g id="noun-fax-1254546" transform="translate(0)">
    <path id="Path_4383" data-name="Path 4383" d="M181.4,298.7h11.226a.432.432,0,1,0,0-.86H181.4A.432.432,0,1,0,181.4,298.7Z" transform="translate(-177.474 -284.999)" fill="#71b7bf"/>
    <path id="Path_4384" data-name="Path 4384" d="M211.493,309.694q.007,2.439.015,4.878c0,.732.048,1.486.007,2.217a2.536,2.536,0,0,1-.148,1.408q-.064.955-.861.521a13.539,13.539,0,0,1-3.552,0l-4.262,0,.515.674a57.642,57.642,0,0,1,.227-9.387c.13-.847-.863-1.209-.993-.358a59.492,59.492,0,0,0-.263,9.745c0,.364.232.674.515.674l5.683,0c.994,0,2.718.462,3.6-.215.832-.635.569-1.985.566-3.062q-.011-3.547-.022-7.095c0-.867-1.033-.868-1.03,0Z" transform="translate(-198.016 -296.22)" fill="#71b7bf"/>
    <path id="Path_4385" data-name="Path 4385" d="M271.307,349.394h5.529a.653.653,0,0,0,0-1.306h-5.529A.653.653,0,0,0,271.307,349.394Z" transform="translate(-264.666 -332.868)" fill="#71b7bf"/>
    <path id="Path_4386" data-name="Path 4386" d="M271.307,404.144h5.834a.653.653,0,0,0,0-1.306h-5.834A.653.653,0,0,0,271.307,404.144Z" transform="translate(-264.715 -385.018)" fill="#71b7bf"/>
    <path id="Path_4387" data-name="Path 4387" d="M276.687,456.194H282a.653.653,0,0,0,0-1.306h-5.311A.653.653,0,0,0,276.687,456.194Z" transform="translate(-269.837 -434.648)" fill="#71b7bf"/>
    <path id="Path_4388" data-name="Path 4388" d="M89,199.882c-1.269.01-3.268.635-3.681-1.386a17.73,17.73,0,0,1-.024-4.894c.754-2.188,2.974-1.6,4.426-1.607l4.317-.016,3.924-.014c1.534-.006,3.945-.809,4.66,1.628a15.609,15.609,0,0,1,.04,4.869c-.624,1.968-3.072,1.277-4.35,1.24-.633-.018-.633,1.288,0,1.306,1.17.034,4.084.762,5-.456a4.036,4.036,0,0,0,.331-2.09,47.413,47.413,0,0,0-.04-4.869c-.106-1.415-.38-2.571-1.526-2.9a12.523,12.523,0,0,0-3.332-.034l-4.317.016c-2.616.009-5.232,0-7.848.029-1.479.017-2.119.388-2.259,2.476-.107,1.594-.008,3.275.011,4.875a5.425,5.425,0,0,0,.241,2.3c.823,1.572,3.284.848,4.426.84.633,0,.634-1.311,0-1.306Z" transform="translate(-84.269 -182.926)" fill="#71b7bf"/>
    <path id="Path_4389" data-name="Path 4389" d="M502.846,239.914h1.045a.653.653,0,0,0,0-1.306h-1.045A.653.653,0,0,0,502.846,239.914Z" transform="translate(-488.04 -228.587)" fill="#71b7bf"/>
    <path id="Path_4390" data-name="Path 4390" d="M194.127,240.8a.653.653,0,0,0,0-1.306A.653.653,0,0,0,194.127,240.8Z" transform="translate(-189.453 -229.605)" fill="#71b7bf"/>
    <path id="Path_4391" data-name="Path 4391" d="M146.559,237.214a.653.653,0,0,0,0-1.306A.653.653,0,0,0,146.559,237.214Z" transform="translate(-143.001 -226.015)" fill="#71b7bf"/>
    <path id="Path_4392" data-name="Path 4392" d="M210.424,35.608q.027-3.659.054-7.319l-.623.653q5.5-.069,10.991-.028l-.623-.653q-.022,3.674-.044,7.347a.623.623,0,1,0,1.246,0q.022-3.674.044-7.347a.648.648,0,0,0-.623-.653q-5.5-.041-10.991.028a.649.649,0,0,0-.623.653q-.027,3.659-.054,7.319A.623.623,0,1,0,210.424,35.608Z" transform="translate(-205.833 -27.593)" fill="#71b7bf"/>
  </g>
</svg>
