<svg xmlns="http://www.w3.org/2000/svg" width="24" height="19.33" viewBox="0 0 24 19.33">
  <g id="noun-email-2354715" transform="translate(0)">
    <path id="Path_4306" data-name="Path 4306" d="M100.071,112A2.335,2.335,0,0,0,98,114.507v14.306a2.345,2.345,0,0,0,2.075,2.517h19.85A2.345,2.345,0,0,0,122,128.813V114.507A2.335,2.335,0,0,0,119.921,112Zm0,1.933h19.85a.51.51,0,0,1,.475.574v.181L110,122.772l-10.4-8.084v-.181a.51.51,0,0,1,.475-.574Zm-.475,3.05,9.967,7.742a.686.686,0,0,0,.867,0l9.967-7.742v11.829a.519.519,0,0,1-.475.584h-19.85a.519.519,0,0,1-.475-.584Z" transform="translate(-97.996 -112)" fill="#71b7bf"/>
  </g>
</svg>
