<svg xmlns="http://www.w3.org/2000/svg" xmlns:xlink="http://www.w3.org/1999/xlink" width="1040.37" height="1043.783" viewBox="0 0 1040.37 1043.783">
  <defs>
    <filter id="Path_4428" x="0" y="0" width="1040.37" height="1043.783" filterUnits="userSpaceOnUse">
      <feOffset dy="3" input="SourceAlpha"/>
      <feGaussianBlur stdDeviation="3" result="blur"/>
      <feFlood flood-opacity="0.161"/>
      <feComposite operator="in" in2="blur"/>
      <feComposite in="SourceGraphic"/>
    </filter>
    <linearGradient id="linear-gradient" x1="0.04" y1="0.832" x2="0.725" y2="0.138" gradientUnits="objectBoundingBox">
      <stop offset="0" stop-color="#e2f3ff"/>
      <stop offset="1" stop-color="#f4f7fc"/>
    </linearGradient>
    <filter id="Path_4426" x="78.523" y="0" width="940.481" height="880.743" filterUnits="userSpaceOnUse">
      <feOffset dy="3" input="SourceAlpha"/>
      <feGaussianBlur stdDeviation="3" result="blur-2"/>
      <feFlood flood-opacity="0.161"/>
      <feComposite operator="in" in2="blur-2"/>
      <feComposite in="SourceGraphic"/>
    </filter>
  </defs>
  <g id="Group_1493" data-name="Group 1493" transform="translate(-472.63 -6145.953)">
    <g transform="matrix(1, 0, 0, 1, 472.63, 6145.95)" filter="url(#Path_4428)">
      <path id="Path_4428-2" data-name="Path 4428" d="M399.488,0c182.257,0,414.369,433.749,323.24,586.563S108.368,753.734,17.239,600.919,217.231,0,399.488,0Z" transform="translate(496.58 1031.78) rotate(-131)" fill="#013299"/>
    </g>
    <g transform="matrix(1, 0, 0, 1, 472.63, 6145.95)" filter="url(#Path_4426)">
      <path id="Path_4426-2" data-name="Path 4426" d="M388.677,0C573.822,0,851.539,439.161,758.966,585.548s-648.006,146.387-740.579,0S203.532,0,388.677,0Z" transform="translate(255.74 6) rotate(14)" fill="url(#linear-gradient)"/>
    </g>
  </g>
</svg>
