<svg id="Group_1453" data-name="Group 1453" xmlns="http://www.w3.org/2000/svg" width="24" height="24" viewBox="0 0 24 24">
  <path id="Path_4255" data-name="Path 4255" d="M0,0H24V24H0Z" fill="none"/>
  <path id="Path_4256" data-name="Path 4256" d="M17.039,16.933h2.006A2,2,0,0,0,21.05,14.95V10.983A2,2,0,0,0,19.044,9H5.006A2,2,0,0,0,3,10.983V14.95a2,2,0,0,0,2.006,1.983H7.011" transform="translate(-0.025 0.037)" fill="none" stroke="#edeff5" stroke-linecap="round" stroke-linejoin="round" stroke-width="1.5"/>
  <path id="Path_4257" data-name="Path 4257" d="M16.917,8.95V4.983A1.983,1.983,0,0,0,14.933,3H8.983A1.983,1.983,0,0,0,7,4.983V8.95" transform="translate(0.042 -0.025)" fill="none" stroke="#edeff5" stroke-linecap="round" stroke-linejoin="round" stroke-width="1.5"/>
  <rect id="Rectangle_26" data-name="Rectangle 26" width="10.248" height="8.54" rx="2" transform="translate(6.876 12.669)" fill="none" stroke="#edeff5" stroke-linecap="round" stroke-linejoin="round" stroke-width="1.5"/>
</svg>
