<svg xmlns="http://www.w3.org/2000/svg" width="256" height="256" viewBox="0 0 256 256">
  <g id="Group_1497" data-name="Group 1497" transform="translate(-278 -5047)">
    <g id="Group_1309" data-name="Group 1309">
      <circle id="Ellipse_331" data-name="Ellipse 331" cx="128" cy="128" r="128" transform="translate(278 5047)" fill="#013299"/>
      <path id="Path_4298" data-name="Path 4298" d="M81.886-23.32,130.04,95.755,91.571,218.367a134.674,134.674,0,0,1-38.112-17.986,123.048,123.048,0,0,1-21.89-19.533c-3.864-4.36-7.166-9.388-11.175-14.321C4.123,146.5,0,115.9,0,95.755c0-24.75,7.186-56.54,26.349-78.884,7.9-9.208,18.992-19.844,27.605-25.84A118.955,118.955,0,0,1,81.886-23.32Z" transform="translate(278 5079.245)" fill="#fe0000"/>
    </g>
  </g>
</svg>
