<svg xmlns="http://www.w3.org/2000/svg" width="16.975" height="24" viewBox="0 0 16.975 24">
  <g id="noun-location-1755663" transform="translate(-0.001)">
    <path id="Path_4344" data-name="Path 4344" d="M196.088,50.395a8.65,8.65,0,0,0-8.488,8.78,8.112,8.112,0,0,0,1.335,4.436l6.4,10.362h0a.878.878,0,0,0,1.5,0l6.4-10.362a8.115,8.115,0,0,0,1.335-4.436,8.65,8.65,0,0,0-8.488-8.78Zm0,1.756a6.87,6.87,0,0,1,6.732,7.024,6.1,6.1,0,0,1-1.079,3.512l-5.652,9.146-5.652-9.146a6.1,6.1,0,0,1-1.079-3.512A6.87,6.87,0,0,1,196.088,52.151Zm0,2.341a4.39,4.39,0,1,0,4.39,4.39A4.4,4.4,0,0,0,196.088,54.493Zm0,1.756a2.634,2.634,0,1,1-2.634,2.634A2.621,2.621,0,0,1,196.088,56.249Z" transform="translate(-187.599 -50.395)" fill="#71b7bf"/>
  </g>
</svg>
