<svg xmlns="http://www.w3.org/2000/svg" xmlns:xlink="http://www.w3.org/1999/xlink" width="201.864" height="188.782" viewBox="0 0 201.864 188.782">
  <defs>
    <filter id="Path_4716" x="11.185" y="0" width="190.678" height="178.947" filterUnits="userSpaceOnUse">
      <feOffset dy="3" input="SourceAlpha"/>
      <feGaussianBlur stdDeviation="3" result="blur"/>
      <feFlood flood-opacity="0.161"/>
      <feComposite operator="in" in2="blur"/>
      <feComposite in="SourceGraphic"/>
    </filter>
  </defs>
  <g id="Group_1494" data-name="Group 1494" transform="translate(-876.559 -1254.223)">
    <g transform="matrix(1, 0, 0, 1, 876.56, 1254.22)" filter="url(#Path_4716)">
      <path id="Path_4716-2" data-name="Path 4716" d="M102.4-135.832c50.651,0,86.182,64.545,86.182,108.082,0,17.5-5.47,29.474-15.355,37.576C158.651,21.771,134.371,25.1,104.082,25.1,53.431,25.1,15.9,12.3,15.9-31.24c0-42.8,36.206-102.781,85.594-104.592C102.3-135.862,101.536-135.832,102.4-135.832Z" transform="translate(4.28 141.85)" fill="#fff"/>
    </g>
    <g id="noun-medication-4091591" transform="translate(876.559 1292.204)">
      <path id="Path_4229" data-name="Path 4229" d="M456.991,71a4.974,4.974,0,0,0,1.145-3.152V49.821a5.028,5.028,0,0,0-5.019-5.019H405.078a5.028,5.028,0,0,0-5.019,5.019V67.836a4.968,4.968,0,0,0,1.145,3.152h55.787Z" transform="translate(-310.499 -44.802)" fill="#fe0000"/>
      <path id="Path_4230" data-name="Path 4230" d="M467.207,223.946a4.6,4.6,0,0,0-.493-2.29,4.04,4.04,0,0,0-1.356-1.479,6.727,6.727,0,0,0-2.307-.9,15.615,15.615,0,0,0-3.257-.317h-4.28a.743.743,0,0,0-.739.74v8.4a.743.743,0,0,0,.739.739h4.138a10.377,10.377,0,0,0,5.776-1.32,3.934,3.934,0,0,0,1.779-3.574Z" transform="translate(-348.01 -164.443)" fill="#fe0000"/>
      <path id="Path_4231" data-name="Path 4231" d="M457.044,139.33H401.149a4.536,4.536,0,0,0-1.092,2.923v82.378a4.107,4.107,0,0,0,4.1,4.1h49.888a4.107,4.107,0,0,0,4.1-4.1V142.253a4.614,4.614,0,0,0-1.109-2.923Zm-9,70.545h-5.019a.708.708,0,0,1-.6-.317l-5.248-7.36a.749.749,0,0,0-1.215,0l-5.423,7.379a.742.742,0,0,1-.6.3h-4.736a.748.748,0,0,1-.6-1.2l8.382-11.006a.711.711,0,0,0,.017-.862L424.926,184.8h.017l-3.4-5.072a.739.739,0,0,0-.617-.334H418a.743.743,0,0,0-.74.739V194.4a.743.743,0,0,1-.74.739H412.44a.743.743,0,0,1-.74-.739l0-34.376a.743.743,0,0,1,.739-.739h10.231a23.2,23.2,0,0,1,4.825.493,11.63,11.63,0,0,1,4.033,1.709,8.283,8.283,0,0,1,2.747,3.188,10.269,10.269,0,0,1,.968,4.667,9.6,9.6,0,0,1-.757,3.8,9.435,9.435,0,0,1-2.043,2.976,9.844,9.844,0,0,1-3.046,2.007,11.278,11.278,0,0,1-2.06.651l8.682,13.4a.75.75,0,0,0,1.233.036l4.666-6.481a.759.759,0,0,1,.6-.317h4.736a.748.748,0,0,1,.6,1.2l-7.66,10.038a.715.715,0,0,0,0,.9l8.418,11.076a.76.76,0,0,1-.562,1.249Z" transform="translate(-310.498 -109.91)" fill="#fe0000"/>
      <path id="Path_4232" data-name="Path 4232" d="M165.726,453.126a21.768,21.768,0,0,0-3.169-7.959,22.65,22.65,0,0,0-6.973-5.864c-.017-.017-.036-.036-.053-.036l-13.841,9.738a8.582,8.582,0,0,0-2.078,11.956l.053.088a8.582,8.582,0,0,0,11.957,2.078l14.141-9.932c-.017-.034-.036-.053-.036-.07Z" transform="translate(-130.878 -315.861)" fill="#fe0000"/>
      <path id="Path_4233" data-name="Path 4233" d="M223.778,405.085l-.053-.089a8.582,8.582,0,0,0-11.957-2.078l-13.137,9.227a23.371,23.371,0,0,1,6.868,6.005,22.56,22.56,0,0,1,3.329,7.924l12.855-9.033a8.57,8.57,0,0,0,2.1-11.956Z" transform="translate(-172.412 -289.869)" fill="#fe0000"/>
      <path id="Path_4234" data-name="Path 4234" d="M305.691,493.628c-6.551-1.215-11.675-4.6-13.824-8.611-.053.176-.123.334-.158.493-.951,5.125,5.036,10.53,13.366,12.1,8.346,1.55,15.884-1.339,16.834-6.462a4.975,4.975,0,0,0,.089-.881c-3.363,3.188-9.526,4.614-16.306,3.363Z" transform="translate(-236.152 -347.225)" fill="#fe0000"/>
      <path id="Path_4235" data-name="Path 4235" d="M304,447.27c-4.913.722-8.593,3.169-9.244,6.656a7.317,7.317,0,0,0-.088.862v.405c0,.141.017.281.017.423.017.176.053.37.088.545.017.07.036.159.053.229.053.211.106.423.176.634,1.32,4.05,6.462,7.748,13.119,8.981a22.494,22.494,0,0,0,8.7-.036Z" transform="translate(-238.251 -321.347)" fill="#fe0000"/>
      <path id="Path_4236" data-name="Path 4236" d="M336.259,446.986a24.336,24.336,0,0,0-5.583-.387L343.3,465.018a10.531,10.531,0,0,0,5.142-3.329,7.223,7.223,0,0,0,.669-1.109,1.308,1.308,0,0,0,.123-.281,4.78,4.78,0,0,0,.387-1.233c.969-5.106-5.018-10.529-13.364-12.08Z" transform="translate(-262.934 -320.869)" fill="#fe0000"/>
      <path id="Path_4237" data-name="Path 4237" d="M147.631,350.112a10.039,10.039,0,0,1-3.522-.634L120.2,340.5a9.9,9.9,0,0,1-4.614-3.54,8.181,8.181,0,0,0,5.23,6.6l23.913,8.981a8.276,8.276,0,0,0,10.653-4.842l.053-.159a9.05,9.05,0,0,0,.423-1.779,10.054,10.054,0,0,1-8.224,4.35Z" transform="translate(-115.478 -245.519)" fill="#fe0000"/>
      <path id="Path_4238" data-name="Path 4238" d="M131.309,311.67l6.551-15.355-11.411-4.279a8.025,8.025,0,0,0-1.55-.405,4.752,4.752,0,0,0-.511-.053,7.07,7.07,0,0,0-1.056-.053,3.527,3.527,0,0,0-.44.036,9.387,9.387,0,0,0-1.021.141c-.158.036-.317.07-.458.106a7.231,7.231,0,0,0-1.039.353c-.106.053-.211.07-.317.123a7.427,7.427,0,0,0-1.25.722l-.264.211a8.381,8.381,0,0,0-.845.739c-.106.106-.211.228-.334.353-.228.264-.44.545-.651.828-.088.123-.176.247-.247.37a7.159,7.159,0,0,0-.669,1.373l-.053.158a8.47,8.47,0,0,0-.387,1.462c-.036.247-.053.475-.07.722-.017.228-.036.458-.036.669a9.167,9.167,0,0,0,.053.986,1.991,1.991,0,0,1,.036.317,8.073,8.073,0,0,0,.247,1.128,8.212,8.212,0,0,0,4.983,5.37Z" transform="translate(-115.25 -214.313)" fill="#fe0000"/>
      <path id="Path_4239" data-name="Path 4239" d="M193.945,318.342a.066.066,0,0,0-.017-.036,9.786,9.786,0,0,0-.511-1.356c-.036-.07-.088-.141-.123-.211a8.2,8.2,0,0,0-.651-1.056c-.106-.141-.228-.264-.352-.405a8.581,8.581,0,0,0-.669-.739c-.211-.194-.458-.353-.687-.528a6.607,6.607,0,0,0-.564-.423,8.728,8.728,0,0,0-1.462-.722l-10.865-4.086-6.568,15.391,11.57,4.332a8.371,8.371,0,0,0,2.905.528,8.277,8.277,0,0,0,7.748-5.37l.053-.158a5.332,5.332,0,0,0,.141-.564A8.03,8.03,0,0,0,193.945,318.342Z" transform="translate(-153.796 -226.173)" fill="#fe0000"/>
      <path id="Path_4240" data-name="Path 4240" d="M312.408,359.109c4.385-.281,7.942-2.535,8.928-5.37a6.225,6.225,0,0,0,.211-.828c0-.053.017-.106.017-.158a4.844,4.844,0,0,0,.036-.881c-.017-.228-.053-.458-.089-.67a3.939,3.939,0,0,0-.194-.651c-1.092-2.958-5.106-5-9.755-4.7s-8.382,2.8-9.086,5.881a4.019,4.019,0,0,0-.106.67,4.81,4.81,0,0,0,.141,1.549.528.528,0,0,1,.036.159,6.088,6.088,0,0,0,.3.792c1.355,2.7,5.176,4.492,9.561,4.21Z" transform="translate(-243.521 -251.599)" fill="#fe0000"/>
      <path id="Path_4241" data-name="Path 4241" d="M313.429,384.276a12.79,12.79,0,0,1-9.738-3.116c.9,3.152,5.036,5.336,9.844,5.036s8.646-2.993,9.139-6.234c-1.849,2.377-5.229,4.05-9.244,4.314Z" transform="translate(-244.435 -275.031)" fill="#fe0000"/>
      <path id="Path_4242" data-name="Path 4242" d="M264.5,267.673a29.293,29.293,0,0,0-9.227,4.42,8.45,8.45,0,0,0-1.145,1.056,4.4,4.4,0,0,0-.722,1.021,1.6,1.6,0,0,0,.017,1.814.245.245,0,0,1,.053.07,1.614,1.614,0,0,0,.3.3c.017.017.036.017.053.036a2.808,2.808,0,0,0,.458.281h.017a5.034,5.034,0,0,0,.617.247c2.412.775,7.026.44,12.062-1.092,5.019-1.532,9.052-3.8,10.636-5.794.141-.194.264-.37.37-.545v-.017c.088-.158.159-.334.228-.492,0-.017.017-.036.017-.053a1.851,1.851,0,0,0,.088-.423c0-.036.017-.053.017-.088a1.907,1.907,0,0,0-.053-.458c-.687-2.254-6.868-2.377-13.788-.281Z" transform="translate(-209.789 -196.881)" fill="#fe0000"/>
      <path id="Path_4243" data-name="Path 4243" d="M269.774,287.946c-4.948,1.5-10.161,2.131-13.3,1.021a1.906,1.906,0,0,0,.053.458c.687,2.254,6.85,2.377,13.771.281s11.974-5.636,11.287-7.89a2.351,2.351,0,0,0-.211-.423c-1.954,2.678-6.656,5.056-11.6,6.552Z" transform="translate(-212.069 -207.33)" fill="#fe0000"/>
    </g>
  </g>
</svg>
