<svg xmlns="http://www.w3.org/2000/svg" width="116.178" height="48.075" viewBox="0 0 116.178 48.075">
  <g id="Layer_1" data-name="Layer 1" transform="translate(0 0)">
    <path id="Path_9" data-name="Path 9" d="M17.759,57.5,12.54,47.157h-2v6.82a3.306,3.306,0,0,0,.417,2.015,2.243,2.243,0,0,0,1.691.469h.462V57.5H5.34V56.461h.45A2.227,2.227,0,0,0,7.5,55.977a4.021,4.021,0,0,0,.41-2.288V39.749a3.384,3.384,0,0,0-.4-2.049,2.518,2.518,0,0,0-1.767-.438h-.4V36.19h7.745A8.967,8.967,0,0,1,18.6,37.629a4.95,4.95,0,0,1,1.865,4.229,4.5,4.5,0,0,1-1.292,3.369,7.478,7.478,0,0,1-3.981,1.749l3.565,6.857a6.35,6.35,0,0,0,1.556,2.144,3.127,3.127,0,0,0,1.862.5h.214v1.041m-10.2,4.514h4.382c5.727,10.217,17.132,6.156,20.942-1.243,2.912-5.66,2.125-13.429-9.861-16.951,3.859-1.461,11.236.576,12.863,10.719C42.1,50.3,43.475,43.972,44.593,39.547,42.36,65.615,29.819,74.668,23.991,73.77,17.792,72.8,13.263,66.414,12.185,62.029ZM62.334,57.5V56.461h.447A2.037,2.037,0,0,0,64.367,56a3.6,3.6,0,0,0,.389-2.083V39.862a3.743,3.743,0,0,0-.389-2.168,2.319,2.319,0,0,0-1.684-.432h-.349V36.19h7.3a7.613,7.613,0,0,1,5.133,1.571,5.533,5.533,0,0,1,1.838,4.383,5.136,5.136,0,0,1-1.678,4.119,7.157,7.157,0,0,1-4.793,1.442H67.255v6.156A3.843,3.843,0,0,0,67.635,56a2.027,2.027,0,0,0,1.58.462h.459v1.041Zm4.9-10.924H69.99a3.539,3.539,0,0,0,2.848-1.185,5,5,0,0,0,1.011-3.338,5.67,5.67,0,0,0-.98-3.611,3.569,3.569,0,0,0-2.937-1.225,3.394,3.394,0,0,0-2.144.481,2.928,2.928,0,0,0-.554,2.144Zm51.84,9.442V52.884a5.417,5.417,0,0,0-2.187,1.179,2.239,2.239,0,0,0-.763,1.645,1.347,1.347,0,0,0,.322.94,1.139,1.139,0,0,0,.879.355,1.611,1.611,0,0,0,.769-.242,6.576,6.576,0,0,0,.989-.741Zm2.11.585.334.355a2.043,2.043,0,0,1-.613.631,1.378,1.378,0,0,1-.738.208.919.919,0,0,1-.707-.27,1.559,1.559,0,0,1-.358-.836,3.568,3.568,0,0,1-1.124.809,3.182,3.182,0,0,1-1.32.279,1.92,1.92,0,0,1-2.03-2.037,2.5,2.5,0,0,1,1.081-2.006,9.786,9.786,0,0,1,3.369-1.491v-.965a2.6,2.6,0,0,0-.306-1.421,1.054,1.054,0,0,0-.943-.469,1.133,1.133,0,0,0-.711.193,1.874,1.874,0,0,0-.484.827,2.058,2.058,0,0,1-.423.763.772.772,0,0,1-.527.168.741.741,0,0,1-.56-.227.793.793,0,0,1-.217-.591,1.484,1.484,0,0,1,.845-1.225,3.856,3.856,0,0,1,2.079-.527,2.65,2.65,0,0,1,1.969.585,3.024,3.024,0,0,1,.557,2.083v4.845a1.341,1.341,0,0,0,.064.511.227.227,0,0,0,.221.135.423.423,0,0,0,.221-.077,2.889,2.889,0,0,0,.331-.251ZM103.657,50.9v4.634a2.013,2.013,0,0,0,.2,1.161,1.207,1.207,0,0,0,.8.221v.613h-3.369v-.613a1.311,1.311,0,0,0,.885-.306,2.176,2.176,0,0,0,.227-1.256V51.5a1.833,1.833,0,0,0-.245-1.145,1.443,1.443,0,0,0-.98-.325v-.469l2.45-.854V50.2a7.044,7.044,0,0,1,1.418-1.093,2.511,2.511,0,0,1,1.176-.325,1.819,1.819,0,0,1,1.152.371,2.23,2.23,0,0,1,.717,1.1,8.624,8.624,0,0,1,1.556-1.145,2.575,2.575,0,0,1,1.188-.325,1.681,1.681,0,0,1,1.556.824,5.29,5.29,0,0,1,.49,2.618v3.412c0,.563.067.919.2,1.041a1.332,1.332,0,0,0,.839.227v.637h-3.4V56.93a1.283,1.283,0,0,0,.87-.306,2.1,2.1,0,0,0,.211-1.182v-3.6a3.032,3.032,0,0,0-.306-1.556,1.066,1.066,0,0,0-.977-.487,2,2,0,0,0-.965.276,4.94,4.94,0,0,0-1.081.821v4.738c0,.563.067.919.208,1.047a1.326,1.326,0,0,0,.839.23v.613H105.9V56.89a1.268,1.268,0,0,0,.864-.306,2.029,2.029,0,0,0,.217-1.182V51.846a3.035,3.035,0,0,0-.306-1.565,1.075,1.075,0,0,0-.98-.478,1.978,1.978,0,0,0-.937.269,5.859,5.859,0,0,0-1.1.827Zm-9.338-.87v-.469l2.524-.851v1.92a7.546,7.546,0,0,1,1.375-1.58,1.984,1.984,0,0,1,1.225-.508,1.106,1.106,0,0,1,.778.251.952.952,0,0,1,.27.732.79.79,0,0,1-.2.57.717.717,0,0,1-.548.211,1.755,1.755,0,0,1-.637-.165,1.794,1.794,0,0,0-.554-.162,1.243,1.243,0,0,0-.827.352,4.38,4.38,0,0,0-.845,1.136v3.9c0,.738.095,1.182.282,1.326a2.4,2.4,0,0,0,1.28.217h.184v.637H94.356v-.637a1.531,1.531,0,0,0,1.014-.279,2.035,2.035,0,0,0,.26-1.283V51.5a1.776,1.776,0,0,0-.26-1.152A1.565,1.565,0,0,0,94.319,50.03Zm-2.808,5.99V52.884a5.418,5.418,0,0,0-2.187,1.179,2.239,2.239,0,0,0-.763,1.645,1.335,1.335,0,0,0,.325.94,1.13,1.13,0,0,0,.876.355,1.611,1.611,0,0,0,.769-.242A6.576,6.576,0,0,0,91.511,56.02Zm2.11.585.334.355a2.043,2.043,0,0,1-.613.631,1.372,1.372,0,0,1-.738.208.919.919,0,0,1-.707-.27,1.531,1.531,0,0,1-.355-.836,3.613,3.613,0,0,1-1.127.809,3.182,3.182,0,0,1-1.32.279,1.92,1.92,0,0,1-2.027-2.049,2.5,2.5,0,0,1,1.084-2.006,9.813,9.813,0,0,1,3.369-1.491v-.952a2.6,2.6,0,0,0-.306-1.421,1.054,1.054,0,0,0-.943-.469,1.133,1.133,0,0,0-.711.193,1.874,1.874,0,0,0-.484.827,2.058,2.058,0,0,1-.423.763.772.772,0,0,1-.527.168.741.741,0,0,1-.56-.227.79.79,0,0,1-.217-.579,1.48,1.48,0,0,1,.845-1.225,3.837,3.837,0,0,1,2.076-.527,2.65,2.65,0,0,1,1.969.585,3.024,3.024,0,0,1,.557,2.083V56.3a1.341,1.341,0,0,0,.064.511.227.227,0,0,0,.221.135.423.423,0,0,0,.22-.077,2.891,2.891,0,0,0,.318-.263Zm-15.267.937V56.93a1.3,1.3,0,0,0,.882-.306,2.143,2.143,0,0,0,.23-1.256v-8.2a1.869,1.869,0,0,0-.239-1.145,1.553,1.553,0,0,0-.986-.337v-.469l2.45-.87V50.2a7.062,7.062,0,0,1,1.415-1.1,2.5,2.5,0,0,1,1.173-.306,1.678,1.678,0,0,1,1.553.812,5.3,5.3,0,0,1,.487,2.618v3.412a1.679,1.679,0,0,0,.2,1.032,1.253,1.253,0,0,0,.848.245v.613H82.954V56.89a1.225,1.225,0,0,0,.864-.306,2.041,2.041,0,0,0,.217-1.185V51.849a3,3,0,0,0-.306-1.568,1.069,1.069,0,0,0-.977-.478,1.978,1.978,0,0,0-.937.27,5.764,5.764,0,0,0-1.109.827v4.67a1.959,1.959,0,0,0,.193,1.124,1.225,1.225,0,0,0,.805.221v.613Zm-26.644,0v-.637a1.308,1.308,0,0,0,.882-.306,2.144,2.144,0,0,0,.23-1.259V47.157a1.8,1.8,0,0,0-.248-1.13,1.531,1.531,0,0,0-.986-.349v-.456l2.527-.87V55.377a2.325,2.325,0,0,0,.208,1.268,1.087,1.087,0,0,0,.79.266v.612Zm-3.063-1.531V52.884a5.424,5.424,0,0,0-2.184,1.179,2.242,2.242,0,0,0-.766,1.645,1.323,1.323,0,0,0,.328.94A1.121,1.121,0,0,0,46.9,57a1.586,1.586,0,0,0,.769-.242,6.175,6.175,0,0,0,.962-.738Zm2.113.585.334.355a2.049,2.049,0,0,1-.613.631,1.335,1.335,0,0,1-.735.208.952.952,0,0,1-.711-.269,1.571,1.571,0,0,1-.355-.836,3.614,3.614,0,0,1-1.124.812,3.231,3.231,0,0,1-1.32.279,1.932,1.932,0,0,1-2.034-2.04,2.49,2.49,0,0,1,1.084-2,9.618,9.618,0,0,1,3.369-1.495v-.956a2.6,2.6,0,0,0-.306-1.421,1.054,1.054,0,0,0-.943-.469,1.151,1.151,0,0,0-.714.193,1.9,1.9,0,0,0-.481.827,2.037,2.037,0,0,1-.426.763.781.781,0,0,1-.527.168.729.729,0,0,1-.56-.227.805.805,0,0,1-.217-.582,1.485,1.485,0,0,1,.845-1.225,3.9,3.9,0,0,1,2.079-.524,2.65,2.65,0,0,1,1.969.585,3.024,3.024,0,0,1,.557,2.083V56.3A1.329,1.329,0,0,0,50,56.81a.224.224,0,0,0,.221.135.413.413,0,0,0,.217-.077,2.628,2.628,0,0,0,.309-.263ZM28.915,49.344a1.829,1.829,0,0,0-1.626,1.1,6.167,6.167,0,0,0-.613,2.949,5.562,5.562,0,0,0,.591,2.808,1.774,1.774,0,0,0,1.586,1.029,1.718,1.718,0,0,0,1.556-1.1,6.659,6.659,0,0,0,.573-3.026,5.852,5.852,0,0,0-.542-2.775A1.675,1.675,0,0,0,28.915,49.344ZM25.2,53.282a4.842,4.842,0,0,1,1.063-3.222,3.323,3.323,0,0,1,2.667-1.277,3.133,3.133,0,0,1,2.551,1.3,5.062,5.062,0,0,1,1.029,3.231,4.793,4.793,0,0,1-1.081,3.194A3.369,3.369,0,0,1,28.75,57.8a3.109,3.109,0,0,1-2.527-1.286A5.047,5.047,0,0,1,25.2,53.282ZM10.543,46.045h2.168a5.5,5.5,0,0,0,3.706-1.023,4.154,4.154,0,0,0,1.142-3.268,4.863,4.863,0,0,0-1.066-3.467,4.5,4.5,0,0,0-3.369-1.115,3.279,3.279,0,0,0-2.107.462,2.963,2.963,0,0,0-.487,2.052Z" transform="translate(-5.34 -25.756)" fill="#f4f7fc" fill-rule="evenodd"/>
    <path id="Path_12" data-name="Path 12" d="M27.69,69.632h4.382C37.8,79.849,49.2,75.788,53.014,68.389c2.912-5.66,2.125-13.429-9.861-16.951,3.859-1.461,11.236.576,12.863,10.719C57.6,57.9,58.98,51.575,60.1,47.15,57.865,73.218,45.324,82.271,39.5,81.374c-6.186-.952-10.719-7.35-11.788-11.72" transform="translate(-20.845 -33.359)" fill="#e52421" fill-rule="evenodd"/>
    <path id="Path_14" data-name="Path 14" d="M141.957,17.212c-10.639-11.971-32.276-20.9-53.46.876L82.43,16.336C90.736.38,127.7-5.735,141.957,17.212" transform="translate(-58.821 -2.12)" fill="#e52421" fill-rule="evenodd"/>
    <path id="Path_4678" data-name="Path 4678" d="M141.957,17.212c-10.639-11.971-32.276-20.9-53.46.876L82.43,16.336C90.736.38,127.7-5.735,141.957,17.212" transform="translate(-58.821 -2.12)" fill="#e52421" fill-rule="evenodd"/>
  </g>
</svg>
