<svg id="Layer_1" data-name="Layer 1" xmlns="http://www.w3.org/2000/svg" width="116.18" height="48.178" viewBox="0 0 116.18 48.178">
  <path id="Path_9" data-name="Path 9" d="M17.759,57.548,12.54,47.181h-2v6.835a3.319,3.319,0,0,0,.417,2.02,2.24,2.24,0,0,0,1.691.47h.462v1.044H5.34V56.5h.45A2.224,2.224,0,0,0,7.5,56.02a4.037,4.037,0,0,0,.41-2.293V39.756a3.4,3.4,0,0,0-.4-2.053,2.514,2.514,0,0,0-1.767-.439h-.4V36.19h7.745A8.952,8.952,0,0,1,18.6,37.633a4.965,4.965,0,0,1,1.865,4.239,4.514,4.514,0,0,1-1.292,3.376A7.471,7.471,0,0,1,15.189,47l3.565,6.872A6.363,6.363,0,0,0,20.31,56.02a3.122,3.122,0,0,0,1.862.5h.214v1.044m-10.2,4.524h4.383C22.295,72.323,33.7,68.253,37.51,60.838c2.913-5.672,2.125-13.458-9.862-16.988,3.859-1.464,11.237.577,12.863,10.742,1.589-4.266,2.965-10.6,4.082-15.039-2.233,26.125-14.774,35.2-20.6,34.3C17.793,72.876,13.263,66.479,12.185,62.084Zm50.15-4.536V56.5h.447a2.034,2.034,0,0,0,1.586-.463,3.616,3.616,0,0,0,.389-2.087V39.87a3.758,3.758,0,0,0-.389-2.173,2.316,2.316,0,0,0-1.684-.433h-.349V36.19h7.3a7.6,7.6,0,0,1,5.133,1.574,5.55,5.55,0,0,1,1.838,4.392,5.152,5.152,0,0,1-1.678,4.128,7.146,7.146,0,0,1-4.793,1.446H67.257V53.9a3.859,3.859,0,0,0,.38,2.148,2.025,2.025,0,0,0,1.58.463h.459v1.044Zm4.9-10.948h2.756a3.536,3.536,0,0,0,2.848-1.188,5.015,5.015,0,0,0,1.011-3.345,5.691,5.691,0,0,0-.98-3.619,3.566,3.566,0,0,0-2.937-1.228,3.388,3.388,0,0,0-2.144.482,2.939,2.939,0,0,0-.554,2.148Zm51.841,9.462V52.92a5.414,5.414,0,0,0-2.187,1.182,2.246,2.246,0,0,0-.763,1.648,1.352,1.352,0,0,0,.322.942,1.138,1.138,0,0,0,.879.356,1.608,1.608,0,0,0,.769-.242,6.577,6.577,0,0,0,.989-.743Zm2.11.586.334.356a2.045,2.045,0,0,1-.613.632,1.376,1.376,0,0,1-.738.209.918.918,0,0,1-.707-.27,1.564,1.564,0,0,1-.358-.838,3.568,3.568,0,0,1-1.124.81,3.176,3.176,0,0,1-1.32.279,1.922,1.922,0,0,1-2.03-2.041,2.506,2.506,0,0,1,1.081-2.01,9.777,9.777,0,0,1,3.369-1.495v-.967a2.614,2.614,0,0,0-.306-1.424,1.053,1.053,0,0,0-.943-.47,1.131,1.131,0,0,0-.711.193,1.879,1.879,0,0,0-.484.829,2.064,2.064,0,0,1-.423.764.771.771,0,0,1-.527.169.74.74,0,0,1-.56-.227.8.8,0,0,1-.217-.592,1.487,1.487,0,0,1,.845-1.228,3.849,3.849,0,0,1,2.08-.528,2.646,2.646,0,0,1,1.969.586,3.035,3.035,0,0,1,.557,2.087V56.33a1.347,1.347,0,0,0,.064.513.227.227,0,0,0,.221.135.422.422,0,0,0,.221-.077,2.891,2.891,0,0,0,.331-.252Zm-17.527-5.718v4.644a2.021,2.021,0,0,0,.2,1.163,1.2,1.2,0,0,0,.8.221v.614h-3.369v-.614a1.309,1.309,0,0,0,.885-.307,2.185,2.185,0,0,0,.227-1.258V51.536a1.84,1.84,0,0,0-.245-1.148,1.442,1.442,0,0,0-.98-.325v-.47l2.45-.856v1.495a7.046,7.046,0,0,1,1.418-1.1,2.507,2.507,0,0,1,1.176-.325,1.817,1.817,0,0,1,1.152.371,2.235,2.235,0,0,1,.717,1.1,8.625,8.625,0,0,1,1.556-1.148,2.571,2.571,0,0,1,1.188-.325,1.68,1.68,0,0,1,1.556.826,5.311,5.311,0,0,1,.49,2.624v3.419a1.672,1.672,0,0,0,.2,1.044,1.33,1.33,0,0,0,.839.227v.638h-3.4v-.614a1.281,1.281,0,0,0,.87-.307,2.1,2.1,0,0,0,.211-1.185v-3.6a3.044,3.044,0,0,0-.306-1.559,1.065,1.065,0,0,0-.977-.488,2,2,0,0,0-.965.276,4.941,4.941,0,0,0-1.081.823v4.748c0,.565.067.921.208,1.05a1.324,1.324,0,0,0,.839.23v.614H105.9v-.638a1.266,1.266,0,0,0,.864-.307,2.037,2.037,0,0,0,.217-1.185V51.88a3.047,3.047,0,0,0-.306-1.568,1.074,1.074,0,0,0-.98-.479,1.975,1.975,0,0,0-.937.27,5.86,5.86,0,0,0-1.1.829Zm-9.338-.872v-.47l2.524-.853v1.924a7.557,7.557,0,0,1,1.375-1.584,1.982,1.982,0,0,1,1.225-.509,1.1,1.1,0,0,1,.778.252.956.956,0,0,1,.27.734.793.793,0,0,1-.2.571.716.716,0,0,1-.548.212,1.752,1.752,0,0,1-.637-.166,1.792,1.792,0,0,0-.554-.163,1.242,1.242,0,0,0-.827.353,4.388,4.388,0,0,0-.845,1.139v3.9c0,.74.095,1.185.282,1.329a2.4,2.4,0,0,0,1.28.218h.184v.638H94.358V56.95a1.529,1.529,0,0,0,1.014-.279,2.042,2.042,0,0,0,.26-1.286V51.536a1.783,1.783,0,0,0-.26-1.154A1.563,1.563,0,0,0,94.321,50.06Zm-2.808,6V52.92A5.414,5.414,0,0,0,89.326,54.1a2.246,2.246,0,0,0-.763,1.648,1.34,1.34,0,0,0,.325.942,1.129,1.129,0,0,0,.876.356,1.609,1.609,0,0,0,.769-.242A6.578,6.578,0,0,0,91.513,56.063Zm2.11.586.334.356a2.045,2.045,0,0,1-.613.632,1.37,1.37,0,0,1-.738.209.918.918,0,0,1-.707-.27,1.536,1.536,0,0,1-.355-.838,3.614,3.614,0,0,1-1.127.81,3.176,3.176,0,0,1-1.32.279,1.922,1.922,0,0,1-2.027-2.053,2.5,2.5,0,0,1,1.084-2.01,9.8,9.8,0,0,1,3.369-1.495v-.955a2.613,2.613,0,0,0-.306-1.424,1.053,1.053,0,0,0-.943-.47,1.131,1.131,0,0,0-.711.193,1.879,1.879,0,0,0-.484.829,2.064,2.064,0,0,1-.423.764.771.771,0,0,1-.527.169.74.74,0,0,1-.56-.227.793.793,0,0,1-.217-.58,1.483,1.483,0,0,1,.845-1.228,3.831,3.831,0,0,1,2.076-.528,2.646,2.646,0,0,1,1.969.586,3.035,3.035,0,0,1,.557,2.087v4.855a1.347,1.347,0,0,0,.064.513.227.227,0,0,0,.221.135.422.422,0,0,0,.22-.077,2.893,2.893,0,0,0,.318-.264Zm-15.267.939v-.614a1.294,1.294,0,0,0,.882-.307,2.152,2.152,0,0,0,.23-1.258V47.2a1.876,1.876,0,0,0-.239-1.148,1.551,1.551,0,0,0-.986-.338v-.47l2.45-.872v5.862a7.064,7.064,0,0,1,1.415-1.1,2.492,2.492,0,0,1,1.173-.307,1.677,1.677,0,0,1,1.553.813,5.316,5.316,0,0,1,.487,2.624v3.419a1.685,1.685,0,0,0,.2,1.034,1.251,1.251,0,0,0,.848.246v.614H82.956v-.638a1.223,1.223,0,0,0,.864-.307,2.049,2.049,0,0,0,.217-1.188V51.883a3.017,3.017,0,0,0-.306-1.571,1.068,1.068,0,0,0-.977-.479,1.975,1.975,0,0,0-.937.27,5.764,5.764,0,0,0-1.109.829v4.68a1.967,1.967,0,0,0,.193,1.126,1.223,1.223,0,0,0,.805.221v.614Zm-26.645,0V56.95a1.306,1.306,0,0,0,.882-.307,2.153,2.153,0,0,0,.23-1.261v-8.2a1.8,1.8,0,0,0-.248-1.133,1.529,1.529,0,0,0-.986-.35v-.457l2.527-.872V55.418a2.335,2.335,0,0,0,.208,1.271,1.086,1.086,0,0,0,.79.267v.614Zm-3.063-1.535V52.92A5.42,5.42,0,0,0,46.465,54.1,2.249,2.249,0,0,0,45.7,55.75a1.328,1.328,0,0,0,.328.942,1.12,1.12,0,0,0,.876.353,1.584,1.584,0,0,0,.769-.242,6.176,6.176,0,0,0,.962-.74Zm2.113.586L51.1,57a2.051,2.051,0,0,1-.613.632,1.333,1.333,0,0,1-.735.209.951.951,0,0,1-.711-.27,1.576,1.576,0,0,1-.355-.838,3.614,3.614,0,0,1-1.124.813,3.225,3.225,0,0,1-1.32.279A1.935,1.935,0,0,1,44.2,55.777a2.5,2.5,0,0,1,1.084-2.007,9.609,9.609,0,0,1,3.369-1.5v-.958a2.613,2.613,0,0,0-.306-1.424,1.053,1.053,0,0,0-.943-.47,1.15,1.15,0,0,0-.714.193,1.91,1.91,0,0,0-.481.829,2.042,2.042,0,0,1-.426.764.78.78,0,0,1-.527.169.728.728,0,0,1-.56-.227.808.808,0,0,1-.217-.583,1.488,1.488,0,0,1,.845-1.228,3.889,3.889,0,0,1,2.08-.525,2.646,2.646,0,0,1,1.969.586,3.035,3.035,0,0,1,.557,2.087v4.855a1.335,1.335,0,0,0,.064.513.224.224,0,0,0,.221.135.413.413,0,0,0,.217-.077,2.631,2.631,0,0,0,.309-.264ZM28.916,49.372a1.829,1.829,0,0,0-1.626,1.1,6.191,6.191,0,0,0-.613,2.956,5.584,5.584,0,0,0,.591,2.814,1.774,1.774,0,0,0,1.586,1.031,1.718,1.718,0,0,0,1.556-1.1,6.686,6.686,0,0,0,.573-3.032,5.875,5.875,0,0,0-.542-2.781A1.675,1.675,0,0,0,28.916,49.372ZM25.2,53.319a4.859,4.859,0,0,1,1.063-3.229,3.32,3.32,0,0,1,2.668-1.28,3.131,3.131,0,0,1,2.551,1.307,5.081,5.081,0,0,1,1.029,3.238,4.81,4.81,0,0,1-1.081,3.2,3.366,3.366,0,0,1-2.68,1.289,3.106,3.106,0,0,1-2.527-1.289A5.065,5.065,0,0,1,25.2,53.319ZM10.543,46.067h2.168a5.49,5.49,0,0,0,3.706-1.025,4.168,4.168,0,0,0,1.142-3.275,4.881,4.881,0,0,0-1.066-3.474,4.494,4.494,0,0,0-3.369-1.117,3.274,3.274,0,0,0-2.107.463,2.974,2.974,0,0,0-.487,2.056Z" transform="translate(-5.34 -25.733)" fill="#203c89" fill-rule="evenodd"/>
  <path id="Path_12" data-name="Path 12" d="M27.69,69.681h4.392c5.739,10.239,17.169,6.169,20.987-1.246,2.919-5.672,2.13-13.458-9.883-16.988,3.867-1.464,11.261.577,12.89,10.742,1.593-4.266,2.971-10.6,4.091-15.039-2.237,26.125-14.806,35.2-20.646,34.3-6.2-.955-10.742-7.366-11.813-11.746" transform="translate(-20.83 -33.33)" fill="#e52421" fill-rule="evenodd"/>
  <path id="Path_14" data-name="Path 14" d="M142.085,17.245c-10.662-12-32.346-20.941-53.575.878l-6.08-1.756c8.324-15.99,45.365-22.119,59.655.878" transform="translate(-58.873 -2.12)" fill="#e52421" fill-rule="evenodd"/>
</svg>
