<svg xmlns="http://www.w3.org/2000/svg" xmlns:xlink="http://www.w3.org/1999/xlink" width="434" height="331" viewBox="0 0 434 331">
  <defs>
    <filter id="Rectangle_1977" x="-9" y="-6" width="452" height="349" filterUnits="userSpaceOnUse">
      <feOffset dy="3" input="SourceAlpha"/>
      <feGaussianBlur stdDeviation="3" result="blur"/>
      <feFlood flood-opacity="0.161"/>
      <feComposite operator="in" in2="blur"/>
      <feComposite in="SourceGraphic"/>
    </filter>
    <clipPath id="clip-path">
      <g transform="matrix(1, 0, 0, 1, 0, 0)" filter="url(#Rectangle_1977)">
        <path id="Rectangle_1977-2" data-name="Rectangle 1977" d="M0,0H434a0,0,0,0,1,0,0V311a20,20,0,0,1-20,20H20A20,20,0,0,1,0,311V0A0,0,0,0,1,0,0Z" transform="translate(278 1492)" fill="#fff" stroke="#707070" stroke-width="1"/>
      </g>
    </clipPath>
  </defs>
  <g id="Mask_Group_38" data-name="Mask Group 38" transform="translate(-278 -1492)" clip-path="url(#clip-path)">
    <g id="Group_1708" data-name="Group 1708">
      <path id="Rectangle_1976" data-name="Rectangle 1976" d="M0,0H434a0,0,0,0,1,0,0V310.883a20,20,0,0,1-20,20H20a20,20,0,0,1-20-20V0A0,0,0,0,1,0,0Z" transform="translate(278 1491.5)" fill="#e2f3ff"/>
      <g id="Group_1635" data-name="Group 1635" transform="translate(-352 454.383)">
        <g id="Group_38" data-name="Group 38" transform="translate(662 1308)">
          <text id="_Gastrointestinal_Diseases" data-name=" Gastrointestinal Diseases" transform="translate(140 26)" fill="#013299" font-size="20" font-family="Ubuntu-Regular, Ubuntu"><tspan x="-116.72" y="0" xml:space="preserve"> Gastrointestinal Diseases</tspan></text>
          <g id="Component_4_348" data-name="Component 4 – 348" transform="translate(0 10)">
            <path id="Path_9" data-name="Path 9" d="M4.5,12.5l8-8a4.95,4.95,0,0,1,7,7l-8,8a4.95,4.95,0,0,1-7-7" transform="translate(-3.05 -3.05)" fill="none" stroke="#013299" stroke-linecap="round" stroke-linejoin="round" stroke-width="1.5"/>
            <line id="Line_7" data-name="Line 7" x2="7" y2="7" transform="translate(5.45 5.45)" fill="none" stroke="#013299" stroke-linecap="round" stroke-linejoin="round" stroke-width="1.5"/>
          </g>
        </g>
        <g id="Group_37" data-name="Group 37" transform="translate(662 1273)">
          <text id="_Pain_Management" data-name=" Pain Management" transform="translate(107 26)" fill="#013299" font-size="20" font-family="Ubuntu-Regular, Ubuntu"><tspan x="-84.22" y="0" xml:space="preserve"> Pain Management</tspan></text>
          <g id="Component_4_349" data-name="Component 4 – 349" transform="translate(0 10)">
            <path id="Path_9-2" data-name="Path 9" d="M4.5,12.5l8-8a4.95,4.95,0,0,1,7,7l-8,8a4.95,4.95,0,0,1-7-7" transform="translate(-3.05 -3.05)" fill="none" stroke="#013299" stroke-linecap="round" stroke-linejoin="round" stroke-width="1.5"/>
            <line id="Line_7-2" data-name="Line 7" x2="7" y2="7" transform="translate(5.45 5.45)" fill="none" stroke="#013299" stroke-linecap="round" stroke-linejoin="round" stroke-width="1.5"/>
          </g>
        </g>
        <g id="Group_36" data-name="Group 36" transform="translate(662 1238)">
          <text id="Central_Nervous_System_" data-name="Central Nervous System  " transform="translate(136 26)" fill="#013299" font-size="20" font-family="Ubuntu-Regular, Ubuntu"><tspan x="-113.24" y="0" xml:space="preserve">Central Nervous System  </tspan></text>
          <g id="Component_4_350" data-name="Component 4 – 350" transform="translate(0 10)">
            <path id="Path_9-3" data-name="Path 9" d="M4.5,12.5l8-8a4.95,4.95,0,0,1,7,7l-8,8a4.95,4.95,0,0,1-7-7" transform="translate(-3.05 -3.05)" fill="none" stroke="#013299" stroke-linecap="round" stroke-linejoin="round" stroke-width="1.5"/>
            <line id="Line_7-3" data-name="Line 7" x2="7" y2="7" transform="translate(5.45 5.45)" fill="none" stroke="#013299" stroke-linecap="round" stroke-linejoin="round" stroke-width="1.5"/>
          </g>
        </g>
        <g id="Group_35" data-name="Group 35" transform="translate(662 1203)">
          <text id="Respiratory_Diseases" data-name="Respiratory Diseases" transform="translate(117 26)" fill="#013299" font-size="20" font-family="Ubuntu-Regular, Ubuntu"><tspan x="-94.41" y="0">Respiratory Diseases</tspan></text>
          <g id="Component_4_351" data-name="Component 4 – 351" transform="translate(0 10)">
            <path id="Path_9-4" data-name="Path 9" d="M4.5,12.5l8-8a4.95,4.95,0,0,1,7,7l-8,8a4.95,4.95,0,0,1-7-7" transform="translate(-3.05 -3.05)" fill="none" stroke="#013299" stroke-linecap="round" stroke-linejoin="round" stroke-width="1.5"/>
            <line id="Line_7-4" data-name="Line 7" x2="7" y2="7" transform="translate(5.45 5.45)" fill="none" stroke="#013299" stroke-linecap="round" stroke-linejoin="round" stroke-width="1.5"/>
          </g>
        </g>
        <g id="Group_34" data-name="Group 34" transform="translate(662 1168)">
          <text id="Urology_" data-name="Urology " transform="translate(60 26)" fill="#013299" font-size="20" font-family="Ubuntu-Regular, Ubuntu"><tspan x="-38.33" y="0">Urology </tspan></text>
          <g id="Component_4_352" data-name="Component 4 – 352" transform="translate(0 10)">
            <path id="Path_9-5" data-name="Path 9" d="M4.5,12.5l8-8a4.95,4.95,0,0,1,7,7l-8,8a4.95,4.95,0,0,1-7-7" transform="translate(-3.05 -3.05)" fill="none" stroke="#013299" stroke-linecap="round" stroke-linejoin="round" stroke-width="1.5"/>
            <line id="Line_7-5" data-name="Line 7" x2="7" y2="7" transform="translate(5.45 5.45)" fill="none" stroke="#013299" stroke-linecap="round" stroke-linejoin="round" stroke-width="1.5"/>
          </g>
        </g>
        <g id="Group_32" data-name="Group 32" transform="translate(662 1133)">
          <text id="Women_s_Health" data-name="Women’s Health" transform="translate(96 26)" fill="#013299" font-size="20" font-family="Ubuntu-Regular, Ubuntu"><tspan x="-74.09" y="0">Women’s Health</tspan></text>
          <g id="Component_4_353" data-name="Component 4 – 353" transform="translate(0 10)">
            <path id="Path_9-6" data-name="Path 9" d="M4.5,12.5l8-8a4.95,4.95,0,0,1,7,7l-8,8a4.95,4.95,0,0,1-7-7" transform="translate(-3.05 -3.05)" fill="none" stroke="#013299" stroke-linecap="round" stroke-linejoin="round" stroke-width="1.5"/>
            <line id="Line_7-6" data-name="Line 7" x2="7" y2="7" transform="translate(5.45 5.45)" fill="none" stroke="#013299" stroke-linecap="round" stroke-linejoin="round" stroke-width="1.5"/>
          </g>
        </g>
        <g id="Group_33" data-name="Group 33" transform="translate(662 1098)">
          <text id="Infectious_Diseases" data-name="Infectious Diseases" transform="translate(111 26)" fill="#013299" font-size="20" font-family="Ubuntu-Regular, Ubuntu"><tspan x="-86.93" y="0">Infectious Diseases</tspan></text>
          <g id="Component_4_354" data-name="Component 4 – 354" transform="translate(0 10)">
            <path id="Path_9-7" data-name="Path 9" d="M4.5,12.5l8-8a4.95,4.95,0,0,1,7,7l-8,8a4.95,4.95,0,0,1-7-7" transform="translate(-3.05 -3.05)" fill="none" stroke="#013299" stroke-linecap="round" stroke-linejoin="round" stroke-width="1.5"/>
            <line id="Line_7-7" data-name="Line 7" x2="7" y2="7" transform="translate(5.45 5.45)" fill="none" stroke="#013299" stroke-linecap="round" stroke-linejoin="round" stroke-width="1.5"/>
          </g>
        </g>
        <g id="Group_31" data-name="Group 31" transform="translate(662 1063)">
          <text id="cradiovascular" transform="translate(89 26)" fill="#013299" font-size="20" font-family="Ubuntu-Regular, Ubuntu"><tspan x="-64.81" y="0">cradiovascular</tspan></text>
          <g id="Component_4_355" data-name="Component 4 – 355" transform="translate(0 10)">
            <path id="Path_9-8" data-name="Path 9" d="M4.5,12.5l8-8a4.95,4.95,0,0,1,7,7l-8,8a4.95,4.95,0,0,1-7-7" transform="translate(-3.05 -3.05)" fill="none" stroke="#013299" stroke-linecap="round" stroke-linejoin="round" stroke-width="1.5"/>
            <line id="Line_7-8" data-name="Line 7" x2="7" y2="7" transform="translate(5.45 5.45)" fill="none" stroke="#013299" stroke-linecap="round" stroke-linejoin="round" stroke-width="1.5"/>
          </g>
        </g>
      </g>
    </g>
  </g>
</svg>
