<svg xmlns="http://www.w3.org/2000/svg" width="43.946" height="70.889" viewBox="0 0 43.946 70.889">
  <path id="Path_4285" data-name="Path 4285" d="M21.747-147.132,25.3-182H61.13v8.213H32.842L30.729-154.72A22.567,22.567,0,0,1,42.4-157.746q9.558,0,15.177,6.316T63.2-134.356q0,10.806-5.835,17.026t-16.305,6.22q-9.269,0-15.129-5.139T19.25-130.466h8.4q.816,6,4.274,9.053a13.291,13.291,0,0,0,9.125,3.05,11.989,11.989,0,0,0,9.726-4.226q3.53-4.226,3.53-11.671,0-7.012-3.818-11.263a12.988,12.988,0,0,0-10.158-4.25q-5.811,0-9.125,2.546l-2.353,1.921Z" transform="translate(-19.25 182)" fill="#013299"/>
</svg>
