<svg id="Layer_1" data-name="Layer 1" xmlns="http://www.w3.org/2000/svg" width="274.559" height="113.613" viewBox="0 0 274.559 113.613">
  <path id="Path_9" data-name="Path 9" d="M34.689,86.557,22.356,62.108H17.637V78.226c0,2.432.333,4.017.984,4.762s1.983,1.107,4,1.107h1.093v2.461H5.34V84.1H6.4q3.062,0,4.031-1.144c.651-.767.97-2.562.97-5.407V44.6q0-3.8-.948-4.842c-.644-.68-2.034-1.035-4.176-1.035H5.34V36.19h18.3q8.577,0,13.028,3.4t4.408,10a10.634,10.634,0,0,1-3.054,7.961q-3.054,2.989-9.409,4.133l8.425,16.205c1.353,2.6,2.584,4.27,3.677,5.066a7.39,7.39,0,0,0,4.4,1.173h.507v2.461M21.516,97.254H31.873C45.407,121.4,72.36,111.8,81.364,94.315c6.883-13.375,5.023-31.737-23.305-40.06,9.119-3.452,26.555,1.361,30.4,25.332,3.756-10.06,7.006-25.006,9.648-35.464-5.276,61.607-34.914,83-48.687,80.88C34.768,122.7,24.064,107.618,21.516,97.254Zm118.516-10.7V84.1h1.057q2.844,0,3.749-1.093.923-1.086.919-4.922V44.868c0-2.729-.3-4.444-.919-5.124s-1.932-1.021-3.981-1.021h-.825V36.19h17.262q7.831,0,12.13,3.713t4.343,10.357c0,4.205-1.317,7.462-3.966,9.735S163.366,63.4,158.473,63.4h-6.811V77.951c0,2.642.3,4.343.9,5.066s1.838,1.093,3.735,1.093h1.086v2.461Zm11.58-25.817h6.514a8.364,8.364,0,0,0,6.731-2.8q2.388-2.8,2.388-7.889,0-5.653-2.316-8.533c-1.549-1.911-3.872-2.9-6.941-2.9-2.511,0-4.205.376-5.066,1.136s-1.31,2.439-1.31,5.066ZM274.123,83.054V75.642a12.8,12.8,0,0,0-5.168,2.786,5.291,5.291,0,0,0-1.8,3.887,3.185,3.185,0,0,0,.76,2.222,2.692,2.692,0,0,0,2.077.84,3.806,3.806,0,0,0,1.817-.572,15.538,15.538,0,0,0,2.338-1.752Zm4.987,1.382.789.84a4.827,4.827,0,0,1-1.448,1.491,3.257,3.257,0,0,1-1.744.492,2.171,2.171,0,0,1-1.672-.637,3.684,3.684,0,0,1-.847-1.976,8.431,8.431,0,0,1-2.656,1.911,7.52,7.52,0,0,1-3.119.659,4.538,4.538,0,0,1-4.8-4.813,5.906,5.906,0,0,1,2.555-4.741,23.129,23.129,0,0,1,7.961-3.525v-2.28a6.152,6.152,0,0,0-.724-3.358,2.49,2.49,0,0,0-2.229-1.107,2.678,2.678,0,0,0-1.679.456,4.429,4.429,0,0,0-1.144,1.954,4.864,4.864,0,0,1-1,1.8,1.824,1.824,0,0,1-1.245.4,1.752,1.752,0,0,1-1.325-.536,1.875,1.875,0,0,1-.514-1.4,3.506,3.506,0,0,1,2-2.9,9.112,9.112,0,0,1,4.914-1.245c2.229,0,3.778.456,4.654,1.382s1.317,2.562,1.317,4.922v11.45a3.169,3.169,0,0,0,.152,1.209.536.536,0,0,0,.521.318,1,1,0,0,0,.521-.181,6.826,6.826,0,0,0,.782-.593ZM237.689,70.952V81.9c0,1.505.159,2.417.47,2.743a2.851,2.851,0,0,0,1.889.521v1.448h-7.961V85.167a3.1,3.1,0,0,0,2.092-.724c.355-.4.536-1.39.536-2.967v-9.1a4.332,4.332,0,0,0-.579-2.707,3.411,3.411,0,0,0-2.316-.767V67.8l5.79-2.019V69.3a16.646,16.646,0,0,1,3.351-2.584,5.935,5.935,0,0,1,2.779-.767,4.3,4.3,0,0,1,2.721.876,5.269,5.269,0,0,1,1.694,2.6,20.382,20.382,0,0,1,3.677-2.707,6.086,6.086,0,0,1,2.808-.767,3.973,3.973,0,0,1,3.677,1.947c.767,1.274,1.158,3.337,1.158,6.188v8.063c0,1.332.159,2.171.47,2.461a3.148,3.148,0,0,0,1.983.536v1.505h-8.041V85.2a3.032,3.032,0,0,0,2.055-.724,4.951,4.951,0,0,0,.5-2.794v-8.5a7.166,7.166,0,0,0-.724-3.677,2.519,2.519,0,0,0-2.309-1.151,4.733,4.733,0,0,0-2.28.651,11.674,11.674,0,0,0-2.555,1.94v11.2c0,1.332.159,2.171.492,2.475a3.134,3.134,0,0,0,1.983.543v1.448h-8.063V85.109a3,3,0,0,0,2.041-.724,4.794,4.794,0,0,0,.514-2.794v-8.4a7.172,7.172,0,0,0-.724-3.7,2.54,2.54,0,0,0-2.316-1.129,4.675,4.675,0,0,0-2.215.637,13.845,13.845,0,0,0-2.6,1.954ZM215.622,68.9V67.789l5.964-2.012v4.538a17.834,17.834,0,0,1,3.25-3.735,4.69,4.69,0,0,1,2.9-1.2,2.613,2.613,0,0,1,1.838.593,2.251,2.251,0,0,1,.637,1.73,1.868,1.868,0,0,1-.47,1.346,1.694,1.694,0,0,1-1.3.5,4.147,4.147,0,0,1-1.505-.391,4.241,4.241,0,0,0-1.31-.384,2.938,2.938,0,0,0-1.954.832,10.35,10.35,0,0,0-2,2.685V81.5c0,1.744.224,2.794.666,3.134a5.681,5.681,0,0,0,3.025.514h.434v1.505H215.708V85.145a3.619,3.619,0,0,0,2.4-.659c.413-.413.615-1.448.615-3.033V72.378a4.2,4.2,0,0,0-.615-2.721A3.7,3.7,0,0,0,215.622,68.9Zm-6.637,14.157V75.642a12.8,12.8,0,0,0-5.168,2.786,5.291,5.291,0,0,0-1.8,3.887,3.156,3.156,0,0,0,.767,2.222,2.671,2.671,0,0,0,2.07.84,3.807,3.807,0,0,0,1.817-.572A15.54,15.54,0,0,0,208.985,83.054Zm4.987,1.382.789.84a4.827,4.827,0,0,1-1.448,1.491,3.243,3.243,0,0,1-1.744.492,2.171,2.171,0,0,1-1.672-.637,3.619,3.619,0,0,1-.84-1.976,8.539,8.539,0,0,1-2.663,1.911,7.52,7.52,0,0,1-3.119.659,4.538,4.538,0,0,1-4.791-4.842,5.9,5.9,0,0,1,2.562-4.741,23.19,23.19,0,0,1,7.961-3.525V71.857a6.152,6.152,0,0,0-.724-3.358,2.49,2.49,0,0,0-2.229-1.107,2.678,2.678,0,0,0-1.679.456,4.429,4.429,0,0,0-1.144,1.954,4.864,4.864,0,0,1-1,1.8,1.824,1.824,0,0,1-1.245.4,1.751,1.751,0,0,1-1.324-.536,1.867,1.867,0,0,1-.514-1.368,3.5,3.5,0,0,1,2-2.9,9.068,9.068,0,0,1,4.907-1.245c2.229,0,3.778.456,4.654,1.382s1.317,2.562,1.317,4.922v11.45a3.17,3.17,0,0,0,.152,1.209.536.536,0,0,0,.521.318,1,1,0,0,0,.521-.181,6.834,6.834,0,0,0,.753-.622Zm-36.079,2.215V85.2a3.062,3.062,0,0,0,2.084-.724c.362-.4.543-1.39.543-2.967V62.144a4.417,4.417,0,0,0-.565-2.707,3.669,3.669,0,0,0-2.33-.8V57.534l5.79-2.055V69.3a16.69,16.69,0,0,1,3.344-2.6,5.9,5.9,0,0,1,2.772-.724A3.966,3.966,0,0,1,193.2,67.9q1.151,1.911,1.151,6.188v8.063a3.967,3.967,0,0,0,.478,2.439,2.96,2.96,0,0,0,2,.579v1.448h-8.07V85.109a2.9,2.9,0,0,0,2.041-.724,4.823,4.823,0,0,0,.514-2.8V73.2a7.1,7.1,0,0,0-.724-3.706,2.526,2.526,0,0,0-2.309-1.129A4.675,4.675,0,0,0,186.07,69a13.619,13.619,0,0,0-2.62,1.954V81.99a4.63,4.63,0,0,0,.456,2.656,2.9,2.9,0,0,0,1.9.521v1.448Zm-62.967,0V85.145a3.09,3.09,0,0,0,2.084-.724q.543-.593.543-2.975V62.108a4.243,4.243,0,0,0-.586-2.671,3.619,3.619,0,0,0-2.33-.825V57.534l5.971-2.055V81.534c0,1.621.166,2.62.492,3a2.569,2.569,0,0,0,1.867.63v1.448Zm-7.238-3.619v-7.39a12.817,12.817,0,0,0-5.16,2.786,5.3,5.3,0,0,0-1.809,3.887,3.127,3.127,0,0,0,.774,2.222,2.649,2.649,0,0,0,2.07.832,3.749,3.749,0,0,0,1.817-.572,14.592,14.592,0,0,0,2.273-1.744Zm4.994,1.382.789.84a4.842,4.842,0,0,1-1.448,1.491,3.156,3.156,0,0,1-1.737.492,2.251,2.251,0,0,1-1.679-.637,3.713,3.713,0,0,1-.84-1.976,8.54,8.54,0,0,1-2.656,1.918,7.636,7.636,0,0,1-3.119.659,4.567,4.567,0,0,1-4.806-4.82,5.884,5.884,0,0,1,2.562-4.733,22.731,22.731,0,0,1,7.961-3.532V71.857a6.152,6.152,0,0,0-.724-3.358,2.49,2.49,0,0,0-2.229-1.107,2.721,2.721,0,0,0-1.686.456,4.5,4.5,0,0,0-1.136,1.954,4.813,4.813,0,0,1-1.006,1.8,1.846,1.846,0,0,1-1.245.4,1.723,1.723,0,0,1-1.324-.536,1.9,1.9,0,0,1-.514-1.375,3.51,3.51,0,0,1,2-2.9,9.206,9.206,0,0,1,4.914-1.238c2.229,0,3.778.456,4.654,1.382s1.317,2.562,1.317,4.922v11.45a3.142,3.142,0,0,0,.152,1.209.528.528,0,0,0,.521.318.977.977,0,0,0,.514-.181,6.213,6.213,0,0,0,.731-.622ZM61.055,67.276a4.322,4.322,0,0,0-3.843,2.606,14.574,14.574,0,0,0-1.448,6.97,13.145,13.145,0,0,0,1.4,6.637A4.193,4.193,0,0,0,60.91,85.92c1.578,0,2.779-.869,3.677-2.606a15.737,15.737,0,0,0,1.353-7.151,13.83,13.83,0,0,0-1.281-6.557A3.959,3.959,0,0,0,61.055,67.276Zm-8.779,9.308a11.443,11.443,0,0,1,2.511-7.614,7.853,7.853,0,0,1,6.3-3.018,7.4,7.4,0,0,1,6.029,3.083,11.964,11.964,0,0,1,2.432,7.636A11.327,11.327,0,0,1,67,84.219a7.961,7.961,0,0,1-6.333,3.04,7.346,7.346,0,0,1-5.971-3.04,11.927,11.927,0,0,1-2.417-7.636Zm-34.639-17.1h5.124q6.043,0,8.758-2.417t2.7-7.723c0-3.72-.847-6.449-2.519-8.193s-4.343-2.634-7.961-2.634q-3.814,0-4.979,1.093c-.767.724-1.151,2.345-1.151,4.849Z" transform="translate(-5.34 -11.531)" fill="#f4f7fc" fill-rule="evenodd"/>
  <path id="Path_12" data-name="Path 12" d="M27.69,100.281H38.047c13.534,24.145,40.487,14.548,49.491-2.938,6.883-13.375,5.023-31.737-23.305-40.06,9.119-3.452,26.555,1.361,30.4,25.332,3.756-10.06,7.006-25.006,9.648-35.464-5.276,61.607-34.914,83-48.687,80.88-14.62-2.251-25.332-17.37-27.858-27.7" transform="translate(-11.514 -14.559)" fill="#e52421" fill-rule="evenodd"/>
  <path id="Path_14" data-name="Path 14" d="M223.107,37.787C197.964,9.5,146.83-11.6,96.768,39.857L82.43,35.717c19.628-37.708,106.979-52.161,140.677,2.07" transform="translate(-26.635 -2.12)" fill="#e52421" fill-rule="evenodd"/>
</svg>
